<?xml version="1.0" encoding="iso-8859-1"?>
<!-- Generator: Adobe Illustrator 16.0.0, SVG Export Plug-In . SVG Version: 6.00 Build 0)  -->
<!DOCTYPE svg PUBLIC "-//W3C//DTD SVG 1.1//EN" "http://www.w3.org/Graphics/SVG/1.1/DTD/svg11.dtd">
<svg version="1.1" id="Capa_1" xmlns="http://www.w3.org/2000/svg" xmlns:xlink="http://www.w3.org/1999/xlink" x="0px" y="0px"
	 width="106.058px" height="106.059px" viewBox="0 0 106.058 106.059" style="enable-background:new 0 0 106.058 106.059;"
	 xml:space="preserve">
<g>
	<path style="fill:#010002;" d="M84.843,0H21.215C9.543,0,0.005,9.543,0.005,21.21v63.639c0,11.667,9.538,21.21,21.209,21.21h63.628
		c11.661,0,21.21-9.543,21.21-21.21V21.21C106.053,9.543,96.504,0,84.843,0z M23.908,71.417h-3.954v-20.62l-4.391,4.453l-2.302-3
		l7.053-6.441h3.594V71.417z M33.438,70.806c-0.521,0.549-1.142,0.829-1.867,0.829c-0.339,0-0.684-0.073-1.002-0.218
		c-0.313-0.146-0.601-0.337-0.839-0.58c-0.249-0.238-0.435-0.528-0.578-0.87c-0.132-0.326-0.217-0.693-0.217-1.082
		c0-0.771,0.269-1.435,0.774-1.988c0.521-0.555,1.139-0.829,1.867-0.829c0.705,0,1.326,0.27,1.856,0.792
		c0.528,0.529,0.785,1.187,0.785,1.958C34.212,69.584,33.951,70.246,33.438,70.806z M61.573,65.835v5.582H39.232v-6.556
		L52.185,51.11c0.373-0.414,0.77-0.849,1.186-1.315c0.404-0.468,0.771-0.965,1.119-1.468c0.32-0.53,0.59-1.066,0.818-1.639
		c0.217-0.557,0.326-1.162,0.326-1.784c0-0.756-0.135-1.429-0.404-2.009c-0.274-0.588-0.621-1.098-1.066-1.499
		c-0.436-0.414-0.942-0.738-1.533-0.966c-0.566-0.217-1.201-0.329-1.854-0.329c-1.422,0-2.579,0.445-3.479,1.346
		c-0.917,0.886-1.463,2.1-1.655,3.612l-5.934-0.521c0.111-1.685,0.489-3.182,1.108-4.474c0.601-1.284,1.4-2.361,2.371-3.229
		c0.987-0.849,2.11-1.512,3.399-1.957c1.287-0.445,2.693-0.673,4.194-0.673c1.499,0,2.921,0.217,4.215,0.642
		c1.306,0.433,2.444,1.075,3.418,1.914c0.979,0.846,1.74,1.923,2.314,3.229c0.554,1.315,0.844,2.837,0.844,4.598
		c0,2.31-0.476,4.298-1.434,5.965c-0.953,1.676-2.181,3.271-3.692,4.782L46.132,65.83h15.441V65.835z M71.101,70.806
		c-0.518,0.554-1.14,0.829-1.864,0.829c-0.353,0-0.688-0.073-1.005-0.218c-0.32-0.146-0.601-0.337-0.839-0.58
		c-0.248-0.238-0.435-0.528-0.579-0.87c-0.141-0.326-0.218-0.693-0.218-1.082c0-0.771,0.259-1.435,0.776-1.988
		c0.518-0.555,1.14-0.829,1.864-0.829c0.704,0,1.325,0.27,1.844,0.792c0.533,0.534,0.797,1.187,0.797,1.958
		C71.877,69.584,71.619,70.246,71.101,70.806z M92.155,67.543c-0.435,0.943-1.015,1.73-1.729,2.372
		c-0.725,0.642-1.574,1.118-2.526,1.444c-0.964,0.326-1.958,0.487-2.982,0.487c-0.974,0-1.88-0.108-2.745-0.337
		c-0.849-0.228-1.626-0.59-2.319-1.077c-0.699-0.476-1.295-1.098-1.808-1.854c-0.507-0.761-0.891-1.678-1.149-2.739l4.215-1.228
		c0.238,1.062,0.674,1.88,1.284,2.465c0.616,0.575,1.455,0.87,2.522,0.87c0.528,0,1.02-0.108,1.485-0.295
		c0.477-0.191,0.901-0.466,1.264-0.812c0.357-0.353,0.637-0.777,0.844-1.264c0.208-0.498,0.326-1.047,0.326-1.646
		c0-0.818-0.16-1.492-0.486-2.015c-0.315-0.519-0.73-0.911-1.217-1.191c-0.492-0.284-1.046-0.466-1.657-0.554
		c-0.621-0.099-1.222-0.145-1.812-0.145H82.7V56.11h1.021c0.564,0,1.129-0.031,1.662-0.106c0.538-0.075,1.015-0.228,1.449-0.477
		c0.425-0.228,0.777-0.59,1.036-1.046c0.27-0.456,0.404-1.064,0.404-1.846c0-0.984-0.316-1.792-0.933-2.423
		c-0.611-0.629-1.424-0.943-2.402-0.943c-0.798,0-1.502,0.249-2.134,0.749c-0.621,0.497-1.077,1.194-1.367,2.084l-4.173-1.232
		c0.259-0.942,0.632-1.758,1.118-2.465c0.486-0.694,1.057-1.261,1.719-1.706c0.653-0.456,1.378-0.774,2.175-0.997
		c0.782-0.218,1.616-0.329,2.465-0.329c1.01,0,1.979,0.143,2.879,0.436c0.901,0.29,1.684,0.714,2.372,1.281
		c0.684,0.567,1.217,1.274,1.636,2.134c0.404,0.856,0.611,1.854,0.611,2.977c0,1.38-0.352,2.599-1.057,3.676
		c-0.704,1.067-1.678,1.781-2.94,2.11v0.075c1.485,0.238,2.63,0.942,3.396,2.097c0.771,1.149,1.16,2.532,1.16,4.122
		C92.797,65.523,92.58,66.611,92.155,67.543z"/>
</g>
<g>
</g>
<g>
</g>
<g>
</g>
<g>
</g>
<g>
</g>
<g>
</g>
<g>
</g>
<g>
</g>
<g>
</g>
<g>
</g>
<g>
</g>
<g>
</g>
<g>
</g>
<g>
</g>
<g>
</g>
</svg>
